<svg width="339" height="121" viewBox="0 0 339 121" fill="none" xmlns="http://www.w3.org/2000/svg">
<path d="M15.3488 30.5852L17.3347 22.7184L54.3992 32.075L52.4133 39.9419L38.5968 36.454L29.1901 73.7168L19.7587 71.336L29.1654 34.0731L15.3488 30.5852ZM48.9343 78.7011L57.4788 44.8538L66.8661 47.2236L58.3216 81.0709L48.9343 78.7011ZM63.2959 41.6812C61.9003 41.3289 60.8198 40.5639 60.0545 39.3862C59.3076 38.1975 59.0991 36.9494 59.4292 35.6419C59.7555 34.3492 60.5277 33.3643 61.7456 32.6872C62.9819 31.9992 64.2979 31.8313 65.6935 32.1837C67.0891 32.536 68.1604 33.3065 68.9073 34.4951C69.6726 35.6728 69.8921 36.9081 69.5657 38.2008C69.2357 39.5083 68.4525 40.5061 67.2162 41.1941C65.9983 41.8711 64.6915 42.0335 63.2959 41.6812ZM80.9675 87.4908C77.5005 86.6156 74.7037 85.1283 72.5772 83.0287C70.469 80.9182 69.0784 78.3794 68.4054 75.4123C67.7471 72.4489 67.8499 69.2558 68.714 65.8329C69.5892 62.3659 71.0253 59.4936 73.0223 57.2162C75.0377 54.9277 77.4721 53.3624 80.3257 52.52C83.183 51.663 86.3231 51.6666 89.746 52.5307C92.6988 53.2761 95.149 54.465 97.0966 56.0974C99.0442 57.7298 100.42 59.6788 101.223 61.9443C102.026 64.2098 102.164 66.6667 101.636 69.315L92.7774 67.0788C92.9541 65.3263 92.6361 63.8005 91.8233 62.5015C91.0288 61.1914 89.7722 60.3194 88.0534 59.8855C86.599 59.5184 85.2282 59.5942 83.9408 60.1131C82.6718 60.621 81.5471 61.5481 80.5665 62.8945C79.5859 64.2409 78.8267 65.9792 78.289 68.1093C77.7438 70.2689 77.5741 72.1794 77.7797 73.8408C78.0001 75.506 78.5537 76.8725 79.4405 77.9402C80.3273 79.0079 81.498 79.7254 82.9523 80.0925C84.0247 80.3632 85.0426 80.3858 86.0059 80.1602C86.9839 79.9383 87.8577 79.4791 88.6274 78.7826C89.4154 78.0752 90.0478 77.1488 90.5244 76.0033L99.3829 78.2396C98.5833 80.7881 97.3033 82.8871 95.543 84.5367C93.801 86.1753 91.6892 87.2674 89.2075 87.8129C86.7257 88.3584 83.9791 88.2511 80.9675 87.4908Z" fill="#1B5677"/>
<path d="M103.606 48.2807L101.749 40.3823L138.962 31.6347L140.819 39.5331L126.947 42.7939L135.741 80.206L126.272 82.4319L117.477 45.0198L103.606 48.2807ZM160.782 74.9968C158.613 75.5065 156.593 75.5846 154.72 75.2311C152.843 74.8628 151.236 74.05 149.898 72.7926C148.57 71.517 147.643 69.7582 147.116 67.5163C146.673 65.6283 146.646 63.9613 147.038 62.5151C147.43 61.069 148.131 59.8146 149.142 58.7521C150.153 57.6895 151.371 56.7805 152.797 56.0252C154.237 55.2664 155.779 54.6082 157.422 54.0507C159.35 53.3796 160.898 52.8134 162.066 52.3521C163.23 51.8761 164.042 51.3895 164.501 50.8925C164.96 50.3955 165.104 49.7856 164.935 49.0629L164.903 48.9302C164.574 47.529 163.877 46.5489 162.811 45.9899C161.761 45.4275 160.432 45.3353 158.824 45.7132C157.128 46.1119 155.867 46.8053 155.041 47.7933C154.211 48.7665 153.766 49.8517 153.705 51.049L144.821 52.3901C144.778 50.2211 145.229 48.2319 146.173 46.4223C147.114 44.598 148.514 43.0393 150.374 41.7461C152.245 40.4348 154.537 39.4601 157.251 38.8222C159.139 38.3784 160.998 38.1749 162.827 38.2117C164.672 38.2451 166.374 38.5686 167.935 39.1823C169.51 39.7926 170.861 40.7359 171.986 42.0123C173.107 43.274 173.905 44.9152 174.38 46.9359L179.768 69.8566L170.83 71.9577L169.722 67.2452L169.457 67.3076C169.161 68.4979 168.651 69.6061 167.927 70.6323C167.2 71.6437 166.248 72.5289 165.073 73.2877C163.893 74.0319 162.463 74.6016 160.782 74.9968ZM161.952 67.8578C163.338 67.5319 164.498 66.9713 165.432 66.1759C166.362 65.3658 167.019 64.4177 167.402 63.3315C167.784 62.2454 167.835 61.105 167.555 59.9103L166.707 56.304C166.457 56.5651 166.093 56.8375 165.615 57.1211C165.148 57.3864 164.613 57.6601 164.01 57.9419C163.404 58.209 162.795 58.4687 162.185 58.721C161.572 58.9586 161.016 59.1749 160.517 59.37C159.449 59.7923 158.543 60.2775 157.801 60.8257C157.058 61.3738 156.529 62.004 156.214 62.7162C155.895 63.4137 155.84 64.2049 156.048 65.0899C156.35 66.3731 157.045 67.2447 158.134 67.7047C159.234 68.1466 160.506 68.1976 161.952 67.8578ZM202.591 65.1922C199.11 66.0104 195.942 65.9768 193.088 65.0913C190.245 64.1875 187.842 62.5733 185.88 60.2487C183.931 57.9205 182.554 55.0382 181.746 51.6015C180.927 48.1207 180.881 44.9098 181.606 41.9688C182.342 39.0097 183.783 36.4997 185.929 34.4388C188.072 32.3632 190.861 30.9214 194.298 30.1136C197.263 29.4167 199.985 29.3448 202.465 29.898C204.946 30.4512 207.064 31.5487 208.819 33.1905C210.575 34.8323 211.828 36.9503 212.577 39.5445L203.684 41.6352C203.034 39.998 202.05 38.7897 200.73 38.0103C199.422 37.2127 197.905 37.0168 196.179 37.4224C194.719 37.7657 193.537 38.4638 192.633 39.5168C191.74 40.5517 191.168 41.8924 190.917 43.539C190.666 45.1856 190.792 47.0782 191.294 49.2169C191.804 51.3851 192.532 53.1594 193.479 54.5399C194.441 55.917 195.562 56.8754 196.84 57.4153C198.119 57.9552 199.488 58.0536 200.949 57.7103C202.025 57.4572 202.939 57.0089 203.691 56.3653C204.457 55.7183 205.022 54.9085 205.384 53.936C205.759 52.9453 205.894 51.8318 205.79 50.5955L214.684 48.5048C215.146 51.1354 214.976 53.588 214.172 55.8626C213.379 58.119 212.007 60.0603 210.055 61.6866C208.102 63.3129 205.614 64.4814 202.591 65.1922Z" fill="#1B772F"/>
<path d="M224.194 29.827L227.09 22.2478L262.799 35.8919L259.903 43.4711L246.592 38.385L232.875 74.2855L223.788 70.8137L237.505 34.9131L224.194 29.827ZM261.659 86.0133C258.361 84.7532 255.777 82.963 253.906 80.6424C252.055 78.3131 250.959 75.6401 250.62 72.6232C250.286 69.5922 250.757 66.4066 252.033 63.0663C253.32 59.6978 255.096 57.0026 257.361 54.9808C259.631 52.9448 262.23 51.6832 265.157 51.1959C268.104 50.6999 271.226 51.0819 274.524 52.3419C277.822 53.602 280.396 55.3966 282.247 57.7259C284.118 60.0465 285.221 62.7222 285.555 65.7533C285.894 68.7701 285.42 71.9628 284.133 75.3314C282.857 78.6716 281.084 81.3597 278.814 83.3957C276.549 85.4175 273.943 86.6764 270.996 87.1724C268.069 87.6597 264.956 87.2733 261.659 86.0133ZM264.378 79.0235C265.878 79.5967 267.293 79.6507 268.623 79.1855C269.957 78.706 271.163 77.8206 272.241 76.5292C273.332 75.2431 274.24 73.6518 274.965 71.7553C275.69 69.8587 276.074 68.0673 276.118 66.3811C276.176 64.7003 275.868 63.2362 275.193 61.9889C274.518 60.7415 273.43 59.8313 271.93 59.258C270.416 58.6794 268.977 58.6244 267.614 59.093C266.265 59.567 265.045 60.447 263.953 61.733C262.876 63.0245 261.975 64.6185 261.25 66.515C260.526 68.4116 260.134 70.2003 260.076 71.8811C260.032 73.5673 260.354 75.0368 261.043 76.2895C261.752 77.5335 262.864 78.4448 264.378 79.0235ZM298.451 100.071C295.096 98.7894 292.469 97.0068 290.568 94.7233C288.686 92.4311 287.573 89.7836 287.228 86.7809C286.888 83.764 287.376 80.5359 288.69 77.0966C289.971 73.7422 291.747 71.0471 294.017 69.0111C296.288 66.9751 298.875 65.701 301.779 65.1888C304.698 64.6819 307.757 65.0396 310.955 66.2618C313.107 67.0838 314.977 68.1958 316.566 69.5977C318.175 70.9909 319.41 72.639 320.273 74.5418C321.149 76.4501 321.579 78.5932 321.563 80.9713C321.552 83.3351 321.016 85.9041 319.956 88.6782L319.007 91.1621L291.472 80.6411L293.613 75.0363L312.635 82.3045C313.133 81.0024 313.291 79.7407 313.108 78.5195C312.926 77.2983 312.441 76.2126 311.652 75.2625C310.883 74.3036 309.841 73.5728 308.524 73.0698C307.151 72.5453 305.813 72.3986 304.508 72.63C303.222 72.8525 302.08 73.381 301.08 74.2154C300.085 75.0356 299.335 76.087 298.828 77.3696L296.792 82.6984C296.176 84.3119 295.94 85.8196 296.086 87.2215C296.246 88.6288 296.756 89.8618 297.616 90.9205C298.477 91.9792 299.665 92.7979 301.179 93.3766C302.184 93.7605 303.158 93.9705 304.101 94.0065C305.044 94.0425 305.921 93.891 306.732 93.552C307.543 93.2129 308.261 92.6925 308.886 91.9905L317.04 95.7386C315.847 97.5861 314.306 99.0086 312.417 100.006C310.547 100.995 308.419 101.512 306.034 101.557C303.668 101.594 301.14 101.099 298.451 100.071Z" fill="#771B1B"/>
</svg>
