<svg width="316" height="48" viewBox="0 0 316 48" fill="none" xmlns="http://www.w3.org/2000/svg">
<path d="M32.392 44C29.704 44 27.3147 43.0187 25.224 41.056C23.1333 39.0507 21.3413 36.3413 19.848 32.928C18.9947 36.2987 17.6293 38.816 15.752 40.48C13.8747 42.1013 11.8053 42.912 9.544 42.912C6.344 42.912 3.976 40.16 2.44 34.656C0.946667 29.152 0.2 22.56 0.2 14.88C0.2 12.6613 0.370667 10.912 0.712 9.632C1.05333 8.30933 1.69333 7.648 2.632 7.648C3.016 7.648 3.31467 8.37333 3.528 9.824C3.784 11.2747 3.912 13.1093 3.912 15.328C3.912 31.2853 5.96 39.264 10.056 39.264C11.592 39.264 12.8933 38.8373 13.96 37.984C15.0267 37.1307 16.0293 35.744 16.968 33.824C17.4373 32.672 17.672 30.7733 17.672 28.128L17.608 24.096C17.8213 23.712 18.2053 23.52 18.76 23.52C19.144 23.52 19.5067 23.6267 19.848 23.84C20.232 24.0107 20.488 24.3093 20.616 24.736C20.9147 26.9973 21.512 29.3013 22.408 31.648C23.3467 33.952 24.584 35.9147 26.12 37.536C27.6987 39.1147 29.5547 39.904 31.688 39.904C34.632 39.904 36.7227 39.264 37.96 37.984C39.1973 36.6613 39.816 34.8907 39.816 32.672C39.816 27.8507 39.4747 23.9893 38.792 21.088C38.152 18.144 37.2987 15.3707 36.232 12.768C35.7627 11.5307 35.4213 10.6133 35.208 10.016C35.0373 9.41867 34.952 8.8 34.952 8.16C35.2507 7.47733 35.656 7.136 36.168 7.136C37.1067 7.136 38.1307 8.26667 39.24 10.528C40.392 12.7893 41.3733 15.84 42.184 19.68C42.9947 23.4773 43.4 27.5733 43.4 31.968C43.4 34.4 42.888 36.5333 41.864 38.368C40.8827 40.16 39.5387 41.5467 37.832 42.528C36.168 43.5093 34.3547 44 32.392 44ZM56.6605 44.064C55.6792 44.064 54.8898 42.6347 54.2925 39.776C53.6952 36.8747 53.3112 34.3787 53.1405 32.288C52.9698 30.1973 52.7352 26.8907 52.4365 22.368C52.3938 21.6427 52.3725 20.704 52.3725 19.552C52.3725 18.1013 52.4792 17.0987 52.6925 16.544C52.9485 15.9893 53.3538 15.712 53.9085 15.712C54.3778 15.712 54.7405 15.8187 54.9965 16.032C55.2952 16.2027 55.5512 16.5013 55.7645 16.928L55.7005 19.488C55.7005 22.2187 55.8285 24.8 56.0845 27.232C56.3832 29.664 56.8312 32.928 57.4285 37.024C57.7698 38.816 58.0045 40.288 58.1325 41.44C58.2178 42.0373 58.1112 42.6347 57.8125 43.232C57.5138 43.7867 57.1298 44.064 56.6605 44.064ZM55.0605 8.864C54.1218 8.864 53.4178 8.50133 52.9485 7.776C52.5218 7.05067 52.3085 6.15467 52.3085 5.088C52.3085 4.61867 52.3298 4.27733 52.3725 4.064C52.3298 3.38133 52.7138 3.04 53.5245 3.04C54.1218 3.04 54.7192 3.18933 55.3165 3.488C55.9565 3.744 56.1485 3.936 55.8925 4.064C56.3192 5.17333 56.5325 6.048 56.5325 6.688C56.5325 7.24266 56.4045 7.69066 56.1485 8.032C55.8925 8.33067 55.5298 8.608 55.0605 8.864ZM69.9525 44.256C69.3552 44.4267 69.0138 44.512 68.9285 44.512C68.5872 44.512 68.2245 44.3413 67.8405 44C66.4325 41.9093 65.4085 38.2613 64.7685 33.056C64.1712 27.8507 63.8725 23.3707 63.8725 19.616C63.8725 19.0187 64.2992 18.72 65.1525 18.72C66.4325 18.72 67.0725 19.424 67.0725 20.832C67.0725 21.216 67.0512 21.536 67.0085 21.792C67.3925 20.896 68.1178 19.9787 69.1845 19.04C70.2512 18.1013 71.4885 17.312 72.8965 16.672C74.3045 16.032 75.7338 15.712 77.1845 15.712C81.7498 15.712 85.0778 17.7387 87.1685 21.792C89.2592 25.8027 90.3045 30.7947 90.3045 36.768C90.3045 38.816 90.0912 40.4587 89.6645 41.696C89.2378 42.8907 88.6618 43.488 87.9365 43.488C87.1685 43.488 86.7845 43.2533 86.7845 42.784C87.0832 40.5227 87.2325 38.304 87.2325 36.128C87.2325 30.624 86.2725 26.464 84.3525 23.648C82.4325 20.7893 79.8938 19.36 76.7365 19.36C75.2005 19.36 73.7072 19.744 72.2565 20.512C70.8485 21.28 69.6965 22.3467 68.8005 23.712C67.9472 25.0773 67.5205 26.6347 67.5205 28.384C67.5205 30.3467 67.6272 32.0533 67.8405 33.504C68.0538 34.9547 68.3952 36.704 68.8645 38.752C69.3765 40.7573 69.7392 42.592 69.9525 44.256ZM101.515 44.256C100.918 44.4267 100.576 44.512 100.491 44.512C100.15 44.512 99.787 44.3413 99.403 44C97.995 41.9093 96.971 38.2613 96.331 33.056C95.7337 27.8507 95.435 23.3707 95.435 19.616C95.435 19.0187 95.8617 18.72 96.715 18.72C97.995 18.72 98.635 19.424 98.635 20.832C98.635 21.216 98.6137 21.536 98.571 21.792C98.955 20.896 99.6803 19.9787 100.747 19.04C101.814 18.1013 103.051 17.312 104.459 16.672C105.867 16.032 107.296 15.712 108.747 15.712C113.312 15.712 116.64 17.7387 118.731 21.792C120.822 25.8027 121.867 30.7947 121.867 36.768C121.867 38.816 121.654 40.4587 121.227 41.696C120.8 42.8907 120.224 43.488 119.499 43.488C118.731 43.488 118.347 43.2533 118.347 42.784C118.646 40.5227 118.795 38.304 118.795 36.128C118.795 30.624 117.835 26.464 115.915 23.648C113.995 20.7893 111.456 19.36 108.299 19.36C106.763 19.36 105.27 19.744 103.819 20.512C102.411 21.28 101.259 22.3467 100.363 23.712C99.5097 25.0773 99.083 26.6347 99.083 28.384C99.083 30.3467 99.1897 32.0533 99.403 33.504C99.6163 34.9547 99.9577 36.704 100.427 38.752C100.939 40.7573 101.302 42.592 101.515 44.256ZM142.102 44C139.371 44 136.854 43.4667 134.55 42.4C132.246 41.3333 130.411 39.8187 129.046 37.856C127.68 35.8933 126.998 33.632 126.998 31.072C126.998 28.2133 127.531 25.5467 128.598 23.072C129.664 20.5547 131.222 18.5493 133.27 17.056C135.36 15.52 137.792 14.752 140.566 14.752C143.467 14.752 145.664 15.6907 147.158 17.568C148.651 19.4027 149.355 21.728 149.27 24.544C149.27 27.0613 148.267 28.9813 146.262 30.304C144.299 31.6267 141.782 32.288 138.71 32.288C138.24 32.288 137.536 32.2453 136.598 32.16C135.062 31.9893 133.974 31.7547 133.334 31.456C132.694 31.1573 132.374 30.56 132.374 29.664C132.374 29.3653 132.459 29.152 132.63 29.024C132.8 28.8533 133.142 28.768 133.654 28.768C134.208 28.768 135.19 28.896 136.598 29.152C137.963 29.408 139.179 29.536 140.246 29.536C144.171 29.536 146.134 27.8293 146.134 24.416C146.134 22.368 145.75 20.7467 144.982 19.552C144.256 18.3573 142.955 17.76 141.078 17.76C139.03 17.76 137.195 18.3147 135.574 19.424C133.952 20.4907 132.694 21.8987 131.798 23.648C130.944 25.3973 130.518 27.2533 130.518 29.216C130.518 32.5867 131.456 35.36 133.334 37.536C135.211 39.6693 138.112 40.736 142.038 40.736C142.507 40.736 143.296 40.6933 144.406 40.608C144.875 40.5653 145.451 40.4373 146.134 40.224C146.816 40.0107 147.307 39.8613 147.606 39.776C149.44 39.136 150.784 38.816 151.638 38.816C152.278 38.816 152.768 38.9867 153.11 39.328C152.043 40.9493 150.443 42.144 148.31 42.912C146.219 43.6373 144.15 44 142.102 44ZM161.317 44C159.568 40.5867 158.181 36.576 157.157 31.968C156.176 27.36 155.685 23.3707 155.685 20C155.685 18.6773 155.984 17.824 156.581 17.44C156.922 17.2267 157.178 17.12 157.349 17.12C157.648 17.12 157.861 17.3547 157.989 17.824C158.16 18.2933 158.33 19.1467 158.501 20.384L158.821 22.688C159.29 20.384 160.186 18.5707 161.509 17.248C162.874 15.8827 164.538 15.2 166.501 15.2C168.677 15.2 170.298 15.6267 171.365 16.48C172.432 17.2907 172.965 18.656 172.965 20.576C170.832 19.552 168.89 19.04 167.141 19.04C165.477 19.04 164.048 19.488 162.853 20.384C161.658 21.28 160.826 22.6027 160.357 24.352C159.973 25.5467 159.781 26.6773 159.781 27.744C159.781 28.896 159.93 29.984 160.229 31.008C160.57 31.9893 161.082 33.2053 161.765 34.656C162.405 36.1493 162.896 37.4293 163.237 38.496C163.621 39.5627 163.834 40.7147 163.877 41.952C163.877 42.6773 163.621 43.2107 163.109 43.552C162.597 43.8507 162 44 161.317 44ZM195.786 44.064C194.804 44.064 194.015 42.6347 193.418 39.776C192.82 36.8747 192.436 34.3787 192.266 32.288C192.095 30.1973 191.86 26.8907 191.562 22.368C191.519 21.6427 191.498 20.704 191.498 19.552C191.498 18.1013 191.604 17.0987 191.818 16.544C192.074 15.9893 192.479 15.712 193.034 15.712C193.503 15.712 193.866 15.8187 194.122 16.032C194.42 16.2027 194.676 16.5013 194.89 16.928L194.826 19.488C194.826 22.2187 194.954 24.8 195.21 27.232C195.508 29.664 195.956 32.928 196.554 37.024C196.895 38.816 197.13 40.288 197.258 41.44C197.343 42.0373 197.236 42.6347 196.938 43.232C196.639 43.7867 196.255 44.064 195.786 44.064ZM194.186 8.864C193.247 8.864 192.543 8.50133 192.074 7.776C191.647 7.05067 191.434 6.15467 191.434 5.088C191.434 4.61867 191.455 4.27733 191.498 4.064C191.455 3.38133 191.839 3.04 192.65 3.04C193.247 3.04 193.844 3.18933 194.442 3.488C195.082 3.744 195.274 3.936 195.018 4.064C195.444 5.17333 195.658 6.048 195.658 6.688C195.658 7.24266 195.53 7.69066 195.274 8.032C195.018 8.33067 194.655 8.608 194.186 8.864ZM203.318 36.448C203.915 35.9787 204.491 35.744 205.046 35.744C205.558 35.744 206.048 35.8933 206.518 36.192C207.03 36.4907 207.542 36.8747 208.054 37.344C208.566 37.7707 208.971 38.0907 209.27 38.304C210.251 39.072 211.595 39.6693 213.302 40.096C215.008 40.5227 216.822 40.736 218.742 40.736C220.918 40.736 222.859 40.3307 224.566 39.52C226.315 38.6667 227.19 37.536 227.19 36.128C227.19 34.848 226.72 33.8453 225.782 33.12C224.843 32.352 223.712 31.7973 222.39 31.456C221.067 31.1147 219.318 30.7947 217.142 30.496C214.198 30.1547 211.851 29.728 210.102 29.216C208.395 28.704 207.03 27.872 206.006 26.72C204.982 25.5253 204.47 23.8613 204.47 21.728C204.47 19.424 205.558 17.7173 207.734 16.608C209.91 15.456 212.406 14.88 215.222 14.88C217.782 14.88 219.958 15.4347 221.75 16.544C223.584 17.6107 224.523 19.1467 224.566 21.152C224.651 22.304 224.48 23.2213 224.054 23.904C223.627 24.544 223.115 24.864 222.518 24.864C222.176 24.864 221.878 24.736 221.622 24.48C221.408 24.224 221.302 23.8827 221.302 23.456C221.302 22.7733 221.536 22.0267 222.006 21.216C221.792 20.192 221.088 19.424 219.894 18.912C218.742 18.4 217.355 18.144 215.734 18.144C213.344 18.144 211.446 18.592 210.038 19.488C208.63 20.3413 207.926 21.3653 207.926 22.56C207.926 23.84 208.438 24.8213 209.462 25.504C210.486 26.1867 211.723 26.6773 213.174 26.976C214.667 27.232 216.779 27.488 219.51 27.744C221.771 28.0427 223.606 28.4053 225.014 28.832C226.464 29.2587 227.68 30.0907 228.662 31.328C229.643 32.5227 230.134 34.2507 230.134 36.512C230.134 38.8587 229.046 40.7147 226.87 42.08C224.694 43.4027 222.091 44.064 219.062 44.064C215.179 44.064 211.702 43.4027 208.63 42.08C205.6 40.7573 203.83 38.88 203.318 36.448ZM250.024 14.432C250.024 14.2613 250.237 13.6213 250.664 12.512C251.133 11.4027 251.368 10.016 251.368 8.352C251.368 7.328 251.24 6.15466 250.984 4.832C250.941 4.66133 250.92 4.384 250.92 4C250.92 3.18933 251.133 2.48533 251.56 1.888C252.029 1.248 252.712 0.927998 253.608 0.927998C254.163 0.927998 254.547 1.312 254.76 2.08C255.016 2.80533 255.144 3.89333 255.144 5.344C255.144 6.70933 254.909 8.16 254.44 9.696C253.971 11.232 253.395 12.5333 252.712 13.6C252.029 14.624 251.389 15.136 250.792 15.136C250.28 15.136 250.024 14.9013 250.024 14.432ZM257.704 15.584C257.704 15.4133 257.875 14.9013 258.216 14.048C258.6 13.1947 258.92 12.256 259.176 11.232C259.475 10.208 259.624 9.056 259.624 7.776C259.624 6.92266 259.517 5.89867 259.304 4.704C259.261 4.40533 259.091 4 258.792 3.488C258.493 2.93333 258.344 2.54933 258.344 2.336C258.344 1.90933 258.771 1.696 259.624 1.696C260.477 1.696 261.331 1.99467 262.184 2.592C263.037 3.14667 263.464 4.02133 263.464 5.216C263.464 6.58133 263.165 8.13867 262.568 9.888C262.013 11.6373 261.331 13.152 260.52 14.432C259.752 15.6693 259.069 16.288 258.472 16.288C257.96 16.288 257.704 16.0533 257.704 15.584ZM268.095 47.904C267.625 47.904 267.305 47.7333 267.135 47.392C267.007 47.0933 266.943 46.6027 266.943 45.92C266.943 43.616 267.817 41.0773 269.567 38.304C271.359 35.488 273.684 32.3307 276.543 28.832C277.311 27.936 277.887 27.2107 278.271 26.656L276.095 23.2C274.345 20.4693 273.044 18.272 272.191 16.608C271.38 14.944 270.975 13.3653 270.975 11.872C270.975 11.3173 271.06 10.9333 271.231 10.72C271.444 10.5067 271.807 10.4 272.319 10.4C272.745 10.4 273.407 11.104 274.303 12.512C275.199 13.8773 276.415 15.8827 277.951 18.528C278.249 19.0827 278.74 19.9573 279.423 21.152C280.148 22.304 280.639 22.9867 280.895 23.2C282.9 21.3653 284.564 19.9573 285.887 18.976C287.209 17.9947 289.215 16.6507 291.903 14.944C292.969 14.304 293.972 13.7493 294.911 13.28C295.892 12.768 296.809 12.512 297.663 12.512C298.601 12.512 299.156 12.96 299.326 13.856C296.468 15.648 293.503 17.7813 290.431 20.256C287.359 22.7307 284.927 25.0987 283.135 27.36C283.519 28.4693 284.223 29.7493 285.247 31.2C286.271 32.6507 287.593 34.4 289.215 36.448C290.793 38.496 291.924 40.032 292.607 41.056C293.289 42.0373 293.631 42.8053 293.631 43.36C293.631 43.8293 293.311 44.064 292.671 44.064C292.329 44.064 291.903 44 291.391 43.872C290.196 42.9333 289.065 41.8027 287.999 40.48C286.932 39.1147 285.695 37.408 284.287 35.36C282.153 32.416 280.767 30.5813 280.127 29.856C278.335 31.9467 276.201 34.8267 273.727 38.496L272.319 40.544C271.892 41.184 271.295 42.3573 270.527 44.064C269.972 45.3013 269.524 46.2187 269.183 46.816C268.841 47.4133 268.479 47.776 268.095 47.904ZM301.962 14.432C301.962 14.2613 302.175 13.6213 302.602 12.512C303.071 11.4027 303.306 10.016 303.306 8.352C303.306 7.328 303.178 6.15466 302.922 4.832C302.879 4.66133 302.858 4.384 302.858 4C302.858 3.18933 303.071 2.48533 303.498 1.888C303.967 1.248 304.65 0.927998 305.546 0.927998C306.1 0.927998 306.484 1.312 306.698 2.08C306.954 2.80533 307.082 3.89333 307.082 5.344C307.082 6.70933 306.847 8.16 306.378 9.696C305.908 11.232 305.332 12.5333 304.65 13.6C303.967 14.624 303.327 15.136 302.73 15.136C302.218 15.136 301.962 14.9013 301.962 14.432ZM309.642 15.584C309.642 15.4133 309.812 14.9013 310.154 14.048C310.538 13.1947 310.858 12.256 311.114 11.232C311.412 10.208 311.562 9.056 311.562 7.776C311.562 6.92266 311.455 5.89867 311.242 4.704C311.199 4.40533 311.028 4 310.73 3.488C310.431 2.93333 310.282 2.54933 310.282 2.336C310.282 1.90933 310.708 1.696 311.562 1.696C312.415 1.696 313.268 1.99467 314.122 2.592C314.975 3.14667 315.402 4.02133 315.402 5.216C315.402 6.58133 315.103 8.13867 314.506 9.888C313.951 11.6373 313.268 13.152 312.458 14.432C311.69 15.6693 311.007 16.288 310.41 16.288C309.898 16.288 309.642 16.0533 309.642 15.584Z" fill="#1B772F"/>
</svg>
